inDegrees=no
num_controls=7
num_derivatives=13
num_iterations=84
num_multipliers=7
num_parameters=0
num_slacks=7
num_states=26
objective=0.333891
objective_accelerations=0.036819
objective_balance=0.001322
objective_effort=0.027122
objective_height=0.267154
objective_ligament=0.001473
solver_duration=871.839322
status=Solve_Succeeded
success=true
DataType=double
version=3
OpenSimVersion=4.5
endheader
time	/jointset/ground_pelvis/pelvis_tilt/value	/jointset/ground_pelvis/pelvis_tx/value	/jointset/ground_pelvis/pelvis_ty/value	/jointset/hip_r/hip_flexion_r/value	/jointset/hip_r/hip_adduction_r/value	/jointset/hip_r/hip_rotation_r/value	/jointset/back/lumbar_extension/value	/jointset/patellofemoral_r/patellar_flexion_r/value	/jointset/knee_r/knee_flexion_r/value	/jointset/knee_r/knee_adduction_r/value	/jointset/knee_r/knee_rotation_r/value	/jointset/ankle_r/ankle_angle_r/value	/jointset/subtalar_r/subtalar_angle_r/value	/jointset/ground_pelvis/pelvis_tilt/speed	/jointset/ground_pelvis/pelvis_tx/speed	/jointset/ground_pelvis/pelvis_ty/speed	/jointset/hip_r/hip_flexion_r/speed	/jointset/hip_r/hip_adduction_r/speed	/jointset/hip_r/hip_rotation_r/speed	/jointset/back/lumbar_extension/speed	/jointset/patellofemoral_r/patellar_flexion_r/speed	/jointset/knee_r/knee_flexion_r/speed	/jointset/knee_r/knee_adduction_r/speed	/jointset/knee_r/knee_rotation_r/speed	/jointset/ankle_r/ankle_angle_r/speed	/jointset/subtalar_r/subtalar_angle_r/speed	/forceset/tau_hip_flexion_r	/forceset/tau_hip_adduction_r	/forceset/tau_hip_rotation_r	/forceset/tau_knee_flexion_r	/forceset/tau_ankle_angle_r	/forceset/tau_subtalar_angle_r	/forceset/tau_lumbar_extension	lambda_cid13_p0	lambda_cid14_p0	lambda_cid14_p1	lambda_cid14_p2	lambda_cid14_p3	lambda_cid14_p4	lambda_cid14_p5	/jointset/ground_pelvis/pelvis_tilt/accel	/jointset/ground_pelvis/pelvis_tx/accel	/jointset/ground_pelvis/pelvis_ty/accel	/jointset/hip_r/hip_flexion_r/accel	/jointset/hip_r/hip_adduction_r/accel	/jointset/hip_r/hip_rotation_r/accel	/jointset/back/lumbar_extension/accel	/jointset/patellofemoral_r/patellar_flexion_r/accel	/jointset/knee_r/knee_flexion_r/accel	/jointset/knee_r/knee_adduction_r/accel	/jointset/knee_r/knee_rotation_r/accel	/jointset/ankle_r/ankle_angle_r/accel	/jointset/subtalar_r/subtalar_angle_r/accel	gamma_cid13_p0	gamma_cid14_p0	gamma_cid14_p1	gamma_cid14_p2	gamma_cid14_p3	gamma_cid14_p4	gamma_cid14_p5
1	-0.2809451076746995	-0.008452831645743689	0.6325355810855379	1.469397167440542	-0.2380117227882716	-0.08858089136074009	-0.7853972955639377	1.505224848141392	1.505224848141387	-0.1744344341143954	0.1737454676229614	0.4362386594005548	0.1763677992510971	0.06995466957450061	0.006451191799741054	0.01615578935198468	-0.1031330758410536	-0.002124985410354531	0.007243569583570871	-0.0002028845535725273	-0.01757760829167329	-0.01757760829167104	0.01518704368987993	0.000366179187234095	0.0143657386653922	0.003223692664880123	-0.3630064134289616	0.04726545151964089	0.007318647831950704	-0.4302432188080131	-0.04768093200987715	0.001235629541569144	0.3732683479686209	-0.04109409787466763	-67.45587408880023	-15.81001235695012	8.123241052426879	8.383955822792343	-771.5590912627241	53.79382784040721	1.438231103840084	0.1628075811325206	1.841671650986684	-5.628917106517045	0.2237861208140954	-0.3058121425828156	-0.02240453233057718	-5.007969761918139	-5.007969761918153	1.022275913832738	0.01102088889735067	-1.006286188839189	-0.08924130522855774	2.137948403054811e-09	4.621737935981029e-10	1.622712988277163e-08	1.761703456394992e-08	2.07760971509752e-09	-7.032372656210449e-09	3.539374008011111e-08
1.01	-0.2801747297550438	-0.008380063427157155	0.6327891239769736	1.468085403536453	-0.2380218784008671	-0.08852128844916463	-0.7853981235371671	1.504798895046185	1.504798895046191	-0.1742288507239697	0.1737494389199171	0.436332022830027	0.176395343056914	0.08408063897806474	0.008117896638343218	0.03455574137864428	-0.1592101303725555	9.094529166080964e-05	0.004667783233666515	0.0001918872823261296	-0.06763407719131796	-0.06763407719131707	0.02593079147898176	0.0004293120154918016	0.004315330896244622	0.002283949060655974	-0.3636420353604721	0.04732614057366075	0.007411660839912963	-0.4304434684948429	-0.04781040309540183	0.001206399110231164	0.3742042160951731	-0.04109596059147486	-67.54136476829741	-15.83967960540934	8.130259725693978	8.201292132458134	-772.3120846584834	53.81522235780856	1.393740858340608	0.1709188967514121	1.839596881982944	-5.595661432880042	0.2200662592197921	-0.2348419158483341	0.09360765117077693	-5.007646876631259	-5.007646876631439	1.100596683570753	0.004159570516127106	-1.00316119460759	-0.09649489865797083	7.230273483528981e-09	6.570925158861069e-09	4.552858974518268e-08	5.625420399733191e-08	1.275775842205625e-09	-1.473733944187998e-08	1.016849309831072e-07
1.02	-0.2792642999414067	-0.008290164767879081	0.6332267543693715	1.466213156725772	-0.2380099607635757	-0.088487719408021	-0.7853903658702807	1.503871744977453	1.503871744977465	-0.1739157953612228	0.1737540815633008	0.4363251335569937	0.1764134586245613	0.09796504837067162	0.009877279938048954	0.05297328954439827	-0.2152296571605864	0.002289664566656315	0.002036795497599518	0.001514243503055237	-0.1178170029967079	-0.1178170029967082	0.03668143815295639	0.0005004484727955004	-0.00568480181910571	0.001338045030886423	-0.3642776572919585	0.04738682962768459	0.007504673847859223	-0.4306437181816741	-0.04793987418092978	0.001177168678899369	0.375140084221748	-0.04110417172551546	-67.63397470477682	-15.86477050564859	8.129897225571105	8.016358280119857	-773.1887215895358	53.87673778482857	1.389919101648662	0.1813432733531909	1.845190878805559	-5.617411557822792	0.2203438354101401	-0.3168524198153299	0.1631123446358378	-5.033261143067222	-5.033261143067194	1.023655690807309	0.01262161470654613	-0.9962311780798287	-0.09047339033766297	1.242563482830831e-08	1.600085174570795e-08	7.717249246759245e-08	9.828121561611103e-08	-6.170250745436499e-09	-1.999313734512451e-08	1.729097884263974e-07
1.03	-0.2782162504176396	-0.008182220147187934	0.6338485174103425	1.463781331580562	-0.237976176740069	-0.08848072891761588	-0.7853644545591729	1.502442370782295	1.5024423707823	-0.1734952141001103	0.1737595183772651	0.4362184084774891	0.1764219745591644	0.1116010672172176	0.01172605018224214	0.07136905982801058	-0.2710911653780486	0.004460471759775615	-0.0006429416758004271	0.003854247315035665	-0.1680550584769302	-0.1680550584769224	0.04743927293167793	0.0005925106500432094	-0.01566066014172332	0.0003523223644715183	-0.3649265318570473	0.04745372937720586	0.007611511065565179	-0.4301200769751634	-0.04863022702860358	0.001208060790783231	0.3760844238689006	-0.0411210097602442	-67.87570134000751	-15.8684778594396	8.101703141895198	7.996429286785033	-773.6498500312323	53.88858707811578	1.343880267351943	0.1888020149521522	1.835226203382489	-5.563884448557143	0.2144670740018958	-0.2441597614896314	0.2973786890467964	-5.018664672695207	-5.018664672693983	1.102513173341288	0.008375779458406403	-0.9983300581280002	-0.1045108414859411	1.762204756353972e-08	2.546466787563223e-08	1.088402976681655e-07	1.403428174612718e-07	-1.368407521792305e-08	-2.52239437291606e-08	2.441849894058131e-07
1.04	-0.2770331533071671	-0.008055356201054846	0.6346539293741984	1.460792218554215	-0.2379208810620813	-0.08850066087802293	-0.7853095563520365	1.500510698647896	1.500510698647886	-0.172966921330814	0.1737660512650486	0.4360119114350016	0.1764202554397652	0.1249745657115389	0.01366114502643695	0.08970307412135584	-0.3266872333894792	0.006591995462454797	-0.003347694664690933	0.007311622709720549	-0.2182765908449719	-0.2182765908449554	0.05822373978786585	0.0007196632362719912	-0.02563919441535148	-0.0007089657696447169	-0.3655754064221092	0.04752062912673528	0.007718348283219095	-0.429596435768658	-0.04932057987628006	0.001238952902682256	0.3770287635160786	-0.04114435316758878	-68.12465491391424	-15.86760052687446	8.066095506438609	7.973003778791482	-774.2374535568377	53.94044845393042	1.337415031203696	0.1986081933535312	1.832839680752152	-5.564323516616511	0.2124871373221121	-0.3218555829134369	0.3865866611767337	-5.029956520631125	-5.029956520630945	1.028982106300595	0.01963969650276456	-0.9967663682819098	-0.1055864838779247	2.245741836941852e-08	3.291740448749747e-08	1.360094833593548e-07	1.782080044347991e-07	-1.819672809910584e-08	-3.105187480817301e-08	3.063798532512742e-07
1.05	-0.2757174851815305	-0.00790870110005335	0.6356423251251692	1.457248446758075	-0.2378444863376767	-0.08854770856409314	-0.78521479601689	1.49807695867185	1.498076958671845	-0.1723305828135797	0.173774030413803	0.435705537700633	0.1764074676613319	0.1381279450152055	0.01568514748816137	0.1079608849917846	-0.3820234203402601	0.008678698538263722	-0.006053643534049262	0.01179963365874208	-0.2684619008116325	-0.2684619008116075	0.06906157304909455	0.0008800567178794405	-0.03564391055854133	-0.001868628616549865	-0.365785882857085	0.04757420578611831	0.007889685960131286	-0.4288824176474997	-0.04981405944696399	0.001235634317267915	0.3776137442286393	-0.0411764426634509	-68.28539231706161	-15.86764249802534	8.032356924629781	7.933185141221144	-774.3931675108405	53.94902008636536	1.299640423215633	0.2065825520130828	1.819965689293279	-5.51170271890778	0.2055522467358187	-0.2437170257625241	0.5037867126253698	-5.011398206811718	-5.011398206810551	1.113820491038052	0.01488047591233113	-1.003577590473955	-0.1241107425249316	2.728150661500505e-08	4.030729486442337e-08	1.630380871908759e-07	2.159420534435879e-07	-2.26155943680604e-08	-3.689846603390342e-08	3.682909565612992e-07
1.06	-0.2742712150542028	-0.00774134871854833	0.636812841764665	1.453152625805513	-0.2377474665117073	-0.08862156623621989	-0.7850703798920813	1.495141649601712	1.495141649601705	-0.1715853386527203	0.1737837417577608	0.4352988661342037	0.1763824923429445	0.1510949660495712	0.0178006011271414	0.1261272518264095	-0.4370970646749978	0.01071701577509019	-0.008709691876025241	0.01724278064218221	-0.3185904096634213	-0.3185904096633886	0.08000486851048234	0.001066102276390904	-0.04569876082718811	-0.00314647376057968	-0.3659963592920455	0.04762778244551136	0.00806102363696995	-0.4281683995263491	-0.0503075390176479	0.001232315731874104	0.3781987249412148	-0.04121516085813336	-68.45345430662898	-15.86306394975739	7.991138621436092	7.889024506874125	-774.67813249961	53.99751354312713	1.300143377343513	0.2168984288046683	1.814550873591383	-5.511814993407877	0.2028099695256171	-0.3118754774369635	0.5776138680604468	-5.018596297656786	-5.01859629765675	1.050074546332422	0.02477011188357184	-1.006793193373271	-0.1292229433028548	3.171802884684415e-08	4.71992636172779e-08	1.876803169300285e-07	2.517005253237809e-07	-2.688897641555026e-08	-4.173218227754722e-08	4.242885129616252e-07
1.07	-0.2726962082183143	-0.007552362010260614	0.6381644779216089	1.448507552012633	-0.2376303273656642	-0.08872180074858323	-0.7848667587975774	1.491705473977269	1.491705473977267	-0.1707302147739541	0.1737954461105434	0.4347913579134008	0.1763440910463081	0.1638726657732626	0.02001425554330545	0.1441759134875562	-0.4918546963153516	0.01270101706169044	-0.0113258921994051	0.02364344088769376	-0.368621329674328	-0.3686213296743035	0.09103844203595526	0.001276751741830695	-0.05581497647976183	-0.004558432183647611	-0.365833503089163	0.04763331961212082	0.008286563296895819	-0.4272003430675794	-0.05063266552091323	0.001214963498571259	0.3784986083483355	-0.04126095897807887	-68.53815001248955	-15.84715481066152	7.94488343694717	7.799531189778184	-774.5220969585499	54.01842069838917	1.261533737876463	0.2262199087489013	1.796404531160576	-5.448277388822851	0.1947630947095057	-0.2347706697407596	0.6955924971459178	-4.991839309384262	-4.991839309385502	1.132772504773253	0.01958627520037219	-1.015849021856059	-0.1508118635719564	3.613393586518605e-08	5.406474717736267e-08	2.121956118770338e-07	2.87353913314155e-07	-3.115461994062177e-08	-4.651202219235663e-08	4.799715189944138e-07
1.08	-0.270994434291589	-0.007340714565665901	0.6396958768389209	1.443316793875457	-0.2374936346294572	-0.08884785293617119	-0.7845942710217487	1.487769689261401	1.4877696892614	-0.1697642004100978	0.173809331740248	0.4341823248819396	0.1762908442510889	0.176448384216733	0.02233274838854054	0.1620798039000651	-0.5462339335346563	0.01462773380757802	-0.01387322692087348	0.03101611690718004	-0.4185122279483015	-0.4185122279482847	0.1021829655261665	0.001502357660318257	-0.06600372295860056	-0.00611557347724313	-0.365670646886281	0.04763885677873861	0.008512102956749871	-0.4262322866088177	-0.05095779202417628	0.001197611265286833	0.3787984917554562	-0.04131348172892182	-68.63027979264524	-15.82660689539955	7.891102874779311	7.70504943902875	-774.4982736449116	54.07904789835981	1.259747121299283	0.2378661146188873	1.785596623863808	-5.436136109198092	0.1913530613830792	-0.2981023570546646	0.7720170228553853	-4.990591950270161	-4.990591950270015	1.072264539280099	0.0277614024931311	-1.021299358626248	-0.1582595174083697	3.989630551353259e-08	5.960877228448346e-08	2.319257774644048e-07	3.182733507691901e-07	-3.43985406678174e-08	-5.053961528087681e-08	5.247545998955784e-07
